<?xml version="1.0" standalone="no"?>
<svg xmlns:xlink="http://www.w3.org/1999/xlink" id="wave" style="transform:rotate(180deg); transition: 0.3s" viewBox="0 0 1440 100" version="1.1" xmlns="http://www.w3.org/2000/svg"><defs><linearGradient id="sw-gradient-0" x1="0" x2="0" y1="1" y2="0"><stop stop-color="rgba(255, 249, 234, 1)" offset="0%"/><stop stop-color="rgba(255, 249, 234, 1)" offset="100%"/></linearGradient></defs><path style="transform:translate(0, 0px); opacity:1" fill="url(#sw-gradient-0)" d="M0,70L26.7,65C53.3,60,107,50,160,46.7C213.3,43,267,47,320,41.7C373.3,37,427,23,480,18.3C533.3,13,587,17,640,20C693.3,23,747,27,800,36.7C853.3,47,907,63,960,63.3C1013.3,63,1067,47,1120,41.7C1173.3,37,1227,43,1280,53.3C1333.3,63,1387,77,1440,76.7C1493.3,77,1547,63,1600,51.7C1653.3,40,1707,30,1760,33.3C1813.3,37,1867,53,1920,53.3C1973.3,53,2027,37,2080,28.3C2133.3,20,2187,20,2240,25C2293.3,30,2347,40,2400,46.7C2453.3,53,2507,57,2560,51.7C2613.3,47,2667,33,2720,26.7C2773.3,20,2827,20,2880,26.7C2933.3,33,2987,47,3040,51.7C3093.3,57,3147,53,3200,55C3253.3,57,3307,63,3360,60C3413.3,57,3467,43,3520,40C3573.3,37,3627,43,3680,46.7C3733.3,50,3787,50,3813,50L3840,50L3840,100L3813.3,100C3786.7,100,3733,100,3680,100C3626.7,100,3573,100,3520,100C3466.7,100,3413,100,3360,100C3306.7,100,3253,100,3200,100C3146.7,100,3093,100,3040,100C2986.7,100,2933,100,2880,100C2826.7,100,2773,100,2720,100C2666.7,100,2613,100,2560,100C2506.7,100,2453,100,2400,100C2346.7,100,2293,100,2240,100C2186.7,100,2133,100,2080,100C2026.7,100,1973,100,1920,100C1866.7,100,1813,100,1760,100C1706.7,100,1653,100,1600,100C1546.7,100,1493,100,1440,100C1386.7,100,1333,100,1280,100C1226.7,100,1173,100,1120,100C1066.7,100,1013,100,960,100C906.7,100,853,100,800,100C746.7,100,693,100,640,100C586.7,100,533,100,480,100C426.7,100,373,100,320,100C266.7,100,213,100,160,100C106.7,100,53,100,27,100L0,100Z"/></svg>